<svg width="16" height="22" viewBox="0 0 16 22" fill="none" xmlns="http://www.w3.org/2000/svg">
<path d="M0 22V0H9.08271C10.406 0 11.5789 0.314287 12.6015 0.942859C13.6441 1.57143 14.4662 2.43048 15.0677 3.52C15.6892 4.60952 16 5.83524 16 7.19714C16 8.62191 15.6892 9.9 15.0677 11.0314C14.4662 12.1419 13.6441 13.0219 12.6015 13.6714C11.5789 14.321 10.406 14.6457 9.08271 14.6457H5.11278V22H0ZM5.02256 9.96286H8.3609C8.802 9.96286 9.20301 9.84762 9.56391 9.61714C9.92481 9.38667 10.2155 9.07238 10.4361 8.67429C10.6566 8.27619 10.7669 7.81524 10.7669 7.29143C10.7669 6.74667 10.6566 6.28571 10.4361 5.90857C10.2155 5.53143 9.92481 5.2381 9.56391 5.02857C9.20301 4.81905 8.802 4.71429 8.3609 4.71429H5.02256V9.96286Z" fill="white"/>
</svg>
