<svg width="20" height="21" viewBox="0 0 20 21" fill="none" xmlns="http://www.w3.org/2000/svg">
<path d="M15.6251 5.56006V13.6851C15.6251 13.8508 15.5593 14.0098 15.442 14.127C15.3248 14.2442 15.1659 14.3101 15.0001 14.3101C14.8343 14.3101 14.6754 14.2442 14.5582 14.127C14.441 14.0098 14.3751 13.8508 14.3751 13.6851V7.06865L5.44229 16.0022C5.32502 16.1195 5.16596 16.1854 5.0001 16.1854C4.83425 16.1854 4.67519 16.1195 4.55792 16.0022C4.44064 15.885 4.37476 15.7259 4.37476 15.5601C4.37476 15.3942 4.44064 15.2351 4.55792 15.1179L13.4915 6.18506H6.8751C6.70934 6.18506 6.55037 6.11921 6.43316 6.002C6.31595 5.88479 6.2501 5.72582 6.2501 5.56006C6.2501 5.3943 6.31595 5.23533 6.43316 5.11812C6.55037 5.00091 6.70934 4.93506 6.8751 4.93506H15.0001C15.1659 4.93506 15.3248 5.00091 15.442 5.11812C15.5593 5.23533 15.6251 5.3943 15.6251 5.56006Z" fill="white"/>
</svg>
