<svg width="20" height="21" viewBox="0 0 20 21" fill="none" xmlns="http://www.w3.org/2000/svg">
<path d="M15.6249 5.56006V13.6851C15.6249 13.8508 15.559 14.0098 15.4418 14.127C15.3246 14.2442 15.1656 14.3101 14.9999 14.3101C14.8341 14.3101 14.6751 14.2442 14.5579 14.127C14.4407 14.0098 14.3749 13.8508 14.3749 13.6851V7.06865L5.44205 16.0022C5.32477 16.1195 5.16571 16.1854 4.99986 16.1854C4.83401 16.1854 4.67495 16.1195 4.55767 16.0022C4.4404 15.885 4.37451 15.7259 4.37451 15.5601C4.37451 15.3942 4.4404 15.2351 4.55767 15.1179L13.4913 6.18506H6.87486C6.7091 6.18506 6.55013 6.11921 6.43292 6.002C6.31571 5.88479 6.24986 5.72582 6.24986 5.56006C6.24986 5.3943 6.31571 5.23533 6.43292 5.11812C6.55013 5.00091 6.7091 4.93506 6.87486 4.93506H14.9999C15.1656 4.93506 15.3246 5.00091 15.4418 5.11812C15.559 5.23533 15.6249 5.3943 15.6249 5.56006Z" fill="white"/>
</svg>
