<svg width="21" height="21" viewBox="0 0 21 21" fill="none" xmlns="http://www.w3.org/2000/svg">
<path d="M16.1151 5.56006V13.6851C16.1151 13.8508 16.0492 14.0098 15.932 14.127C15.8148 14.2442 15.6559 14.3101 15.4901 14.3101C15.3243 14.3101 15.1654 14.2442 15.0482 14.127C14.9309 14.0098 14.8651 13.8508 14.8651 13.6851V7.06865L5.93228 16.0022C5.81501 16.1195 5.65595 16.1854 5.49009 16.1854C5.32424 16.1854 5.16518 16.1195 5.04791 16.0022C4.93063 15.885 4.86475 15.7259 4.86475 15.5601C4.86475 15.3942 4.93063 15.2351 5.04791 15.1179L13.9815 6.18506H7.36509C7.19933 6.18506 7.04036 6.11921 6.92315 6.002C6.80594 5.88479 6.74009 5.72582 6.74009 5.56006C6.74009 5.3943 6.80594 5.23533 6.92315 5.11812C7.04036 5.00091 7.19933 4.93506 7.36509 4.93506H15.4901C15.6559 4.93506 15.8148 5.00091 15.932 5.11812C16.0492 5.23533 16.1151 5.3943 16.1151 5.56006Z" fill="white"/>
</svg>
